# xmcd
#
# Track frame offsets: 
#        150
#        18931
#        36780
#        51903
#        69277
#        85177
#        103568
#        120582
#        136846
#        152746
#
# Disc length: 2256 seconds
#
# Revision: 0
# Processed by: cddbd v1.5.2PL0 Copyright (c) Steve Scherf et al.
# Submitted via: ExactAudioCopy v1.0b1
#
DISCID=7508ce0a
DTITLE=王瑞瑜 - 重提往事
DYEAR=2011
DGENRE=Country
TTITLE0=取捨之間
TTITLE1=醉過之後
TTITLE2=好像是情
TTITLE3=未知的結局
TTITLE4=而我更愛
TTITLE5=重提往事
TTITLE6=四個理由
TTITLE7=奇遇
TTITLE8=買斷愛情
TTITLE9=戀你
EXTD=
EXTT0=
EXTT1=
EXTT2=
EXTT3=
EXTT4=
EXTT5=
EXTT6=
EXTT7=
EXTT8=
EXTT9=
PLAYORDER=
